# xmcd CD database file
#
# Track frame offsets:
#	150
#	9575
#	22762
#	36267
#	50220
#	63750
#	77100
#	90255
#	103262
#	117287
#	136562
#	151205
#	162850
#	176575
#	190450
#	204462
#	217387
#	231620
#	245875
#	259575
#
# Disc length: 3642 seconds
#
# Revision: 0
# Processed by: cddbd v1.4PL0 Copyright (c) Steve Scherf et al.
# Submitted via: CDex 1.40Release
#
DISCID=160e3814
DTITLE=Leadbelly - Midnight Special
DYEAR=1935
DGENRE=Blues
TTITLE0=I'm Sorry Mama
TTITLE1=Packin' Trunk
TTITLE2=Roberta
TTITLE3=Four Day Worry Blues
TTITLE4=Fort Worth and Dallas Blues
TTITLE5=Death Letter Blues
TTITLE6=Ox Drivin' Blues
TTITLE7=My Baby Quit Me
TTITLE8=TB Woman Blues
TTITLE9=John Hardy
TTITLE10=The Bourgeois Blues
TTITLE11=Rock Island Line
TTITLE12=Pick a Bale of Cotton
TTITLE13=Midnight Special
TTITLE14=The Red Cross Store Blues
TTITLE15=Good Morning Blues
TTITLE16=Easy Rider
TTITLE17=I'm on My Last Go Round
TTITLE18=New York City
TTITLE19=Looky Yonder, Black Betty, Yella Woman's Doorbells
EXTD=YEAR: 1935 ID3G: 0
EXTT0=
EXTT1=
EXTT2=
EXTT3=
EXTT4=
EXTT5=
EXTT6=
EXTT7=
EXTT8=
EXTT9=
EXTT10=
EXTT11=
EXTT12=
EXTT13=
EXTT14=
EXTT15=
EXTT16=
EXTT17=
EXTT18=
EXTT19=
PLAYORDER=
